PathFileType	4	(X/Y/Z)	4_coords_data.trc
DataRate	CameraRate	NumFrames	NumMarkers	Units	OrigDataRate	OrigDataStartFrame	OrigNumFrames
30.0	30.0	7	21	m	30.0	41	50
Frame#	Time	THUMB_TIP	THUMB_IP	THUMB_MCP	THUMB_CMC	INDEX_TIP	INDEX_DIP	INDEX_PIP	INDEX_MCP	MIDDLE_TIP	MIDDLE_DIP	MIDDLE_PIP	MIDDLE_MCP	RING_TIP	RING_DIP	RING_PIP	RING_MCP	PINKY_TIP	PINKY_DIP	PINKY_PIP	PINKY_MCP	WRIST
X1	Y1	Z1	X2	Y2	Z2	X3	Y3	Z3	X4	Y4	Z4	X5	Y5	Z5	X6	Y6	Z6	X7	Y7	Z7	X8	Y8	Z8	X9	Y9	Z9	X10	Y10	Z10	X11	Y11	Z11	X12	Y12	Z12	X13	Y13	Z13	X14	Y14	Z14	X15	Y15	Z15	X16	Y16	Z16	X17	Y17	Z17	X18	Y18	Z18	X19	Y19	Z19	X20	Y20	Z20	X21	Y21	Z21
40	1.3333333333333333	-0.01886989974975586	-0.09776219940185547	1.04797998046875	-0.03572439956665039	-0.08023069763183593	1.0646199951171875	-0.057878101348876956	-0.07197209930419922	1.0888900146484375	-0.07124909973144532	-0.03946780014038086	1.1005799560546874	-0.02020840072631836	-0.07449099731445312	0.9775070190429688	-0.039474399566650394	-0.07321690368652344	0.9915670166015625	-0.059179798126220706	-0.0710106964111328	1.0085399780273439	-0.08512770080566406	-0.06468679809570313	1.0416300048828124	-0.01446969985961914	-0.048567501068115235	0.959052978515625	-0.033278099060058595	-0.046936298370361326	0.9770549926757812	-0.05643679809570312	-0.04481560134887695	0.9984600219726563	-0.0855824966430664	-0.03997090148925781	1.0331700439453124	-0.010227800369262696	-0.017509599685668946	0.96652197265625	-0.03191629981994629	-0.015240500450134278	0.9780910034179687	-0.0574468994140625	-0.014215900421142577	0.9941539916992187	-0.07883249664306641	-0.016484199523925783	1.0323699951171874	-0.017187700271606446	0.013326399803161621	0.9936259765625	-0.03599209976196289	0.016364999771118164	1.0000700073242188	-0.055197200775146484	0.016284400939941407	1.0094000244140624	-0.07161949920654297	0.006677000045776367	1.03631005859375	-0.10333000183105469	-0.011459699630737305	1.1177099609375
41	1.3666666666666667	-0.01916600036621094	-0.09799739837646484	1.0476400146484375	-0.036041301727294923	-0.08049459838867187	1.06425	-0.05824489974975586	-0.07234049987792969	1.0885799560546876	-0.07185759735107422	-0.03971060180664063	1.10031005859375	-0.020381200790405275	-0.07484500122070313	0.9773870239257813	-0.039704700469970704	-0.07359500122070313	0.9913829956054687	-0.059526500701904295	-0.0713865966796875	1.0082899780273438	-0.08538739776611329	-0.06505030059814453	1.041469970703125	-0.014795000076293946	-0.049014598846435546	0.958802001953125	-0.033552501678466795	-0.04735929870605469	0.9767940063476562	-0.05677050018310547	-0.045187198638916015	0.998176025390625	-0.08582599639892578	-0.04031790161132812	1.03272998046875	-0.010478400230407714	-0.017952999114990233	0.9663289794921875	-0.03221770095825195	-0.015616999626159669	0.9777990112304688	-0.05777970123291016	-0.01456410026550293	0.9938410034179688	-0.07911289978027344	-0.016827699661254882	1.031989990234375	-0.01761650085449219	0.012894499778747558	0.9933389892578125	-0.03637910079956055	0.016016000747680663	0.9996649780273438	-0.05559170150756836	0.01599429988861084	1.00897998046875	-0.07186589813232422	0.0063680100440979	1.0359599609375	-0.1033740005493164	-0.011736599922180176	1.116989990234375
42	1.4	-0.01979210090637207	-0.09846800231933593	1.0473699951171875	-0.03655339813232422	-0.08093350219726562	1.063969970703125	-0.05866849899291992	-0.0727865982055664	1.0882900390625	-0.07232669830322265	-0.03989849853515625	1.1003199462890625	-0.02109939956665039	-0.07561630249023438	0.976989013671875	-0.04042419815063476	-0.07418550109863281	0.9910449829101563	-0.06007419967651367	-0.07185189819335938	1.0080499877929687	-0.08575050354003906	-0.06533869934082032	1.0412900390625	-0.015254899978637696	-0.04968059921264648	0.9584940185546875	-0.03402780151367187	-0.0479093017578125	0.9765239868164063	-0.05714289855957031	-0.04565610122680664	0.9979039916992187	-0.0861698989868164	-0.040648200988769534	1.032489990234375	-0.010868200302124023	-0.018716999053955078	0.9659080200195312	-0.032590400695800784	-0.016334999084472657	0.9774290161132813	-0.058116199493408204	-0.015135800361633301	0.993469970703125	-0.07941320037841797	-0.017170299530029298	1.0316500244140625	-0.01787689971923828	0.012211899757385253	0.9928569946289062	-0.03665380096435547	0.015359399795532226	0.9991220092773437	-0.0558046989440918	0.015383399963378907	1.008469970703125	-0.07207759857177734	0.0059725699424743655	1.03568994140625	-0.10380599975585937	-0.011836500167846679	1.1173599853515626
43	1.4333333333333333	-0.02024239921569824	-0.0987030029296875	1.0468399658203125	-0.036931198120117185	-0.08114890289306641	1.0636099853515626	-0.05914149856567383	-0.07303050231933594	1.088199951171875	-0.07253070068359375	-0.04013650131225586	1.1000799560546874	-0.02155540084838867	-0.07590699768066406	0.9767639770507812	-0.040834400177001955	-0.07442350006103515	0.9907739868164063	-0.06053110122680664	-0.07204879760742187	1.007780029296875	-0.08613210296630859	-0.06547689819335938	1.041050048828125	-0.015716799736022947	-0.05005920028686523	0.9581270141601562	-0.03447380065917969	-0.04822090148925781	0.9762650146484375	-0.05761040115356445	-0.045874900817871093	0.9976389770507812	-0.08649130249023437	-0.04074349975585938	1.0321500244140625	-0.011315400123596192	-0.01917219924926758	0.9655170288085938	-0.03299259948730469	-0.016724599838256835	0.977083984375	-0.058452301025390625	-0.015466099739074706	0.9932080078125	-0.07963279724121093	-0.017360099792480467	1.0315	-0.01820840072631836	0.011658499717712403	0.9923350219726562	-0.03699599838256836	0.014871999740600586	0.9987030029296875	-0.05615560150146484	0.014973199844360352	1.0081500244140624	-0.07235769653320312	0.005731969833374023	1.03543994140625	-0.10383799743652344	-0.011917699813842773	1.116780029296875
44	1.4666666666666666	-0.020313899993896486	-0.09848809814453124	1.0466800537109375	-0.03699259948730469	-0.08105899810791016	1.0633800048828126	-0.05920619964599609	-0.0729709014892578	1.0879200439453125	-0.07269850158691406	-0.04020029830932617	1.0999200439453125	-0.02164739990234375	-0.07595559692382813	0.976708984375	-0.040959598541259766	-0.07447750091552735	0.9906300048828125	-0.0606973991394043	-0.07211530303955078	1.0075599975585938	-0.0864552001953125	-0.06551100158691406	1.040800048828125	-0.016027299880981446	-0.05018759918212891	0.9578099975585938	-0.03473310089111328	-0.04832509994506836	0.9759760131835937	-0.05782680130004883	-0.04595040130615234	0.997406982421875	-0.08669509887695312	-0.04080179977416992	1.032030029296875	-0.011668800354003906	-0.01930739974975586	0.9650910034179687	-0.033316001892089844	-0.01684939956665039	0.9767579956054687	-0.058703601837158205	-0.015590100288391114	0.9929240112304687	-0.07984030151367187	-0.017404199600219727	1.031260009765625	-0.018559499740600584	0.011585399627685547	0.9918800048828125	-0.03728939819335937	0.014777500152587891	0.9983699951171875	-0.05644800186157226	0.014872799873352051	1.0078699951171874	-0.07248529815673828	0.005697420120239258	1.035260009765625	-0.10414900207519531	-0.011961400032043457	1.1169599609375
45	1.5	-0.020611900329589844	-0.09862059783935546	1.046510009765625	-0.037168998718261716	-0.0810958023071289	1.06322998046875	-0.05939250183105469	-0.07300260162353515	1.087800048828125	-0.07272350311279296	-0.040186901092529294	1.099699951171875	-0.021765199661254883	-0.07594750213623047	0.976572021484375	-0.04109260177612305	-0.07445079803466798	0.990489013671875	-0.06075579833984375	-0.07207289886474609	1.0074199829101562	-0.086497802734375	-0.06543240356445312	1.0407099609375	-0.01624410057067871	-0.050161598205566406	0.9575819702148437	-0.03490510177612305	-0.04828269958496094	0.9758070068359375	-0.05798160171508789	-0.0458843994140625	0.9972039794921875	-0.08673090362548828	-0.04066989898681641	1.0319300537109375	-0.011878299713134765	-0.019378999710083007	0.9647219848632812	-0.033537899017333984	-0.016899299621582032	0.9765289916992187	-0.058793399810791014	-0.015618499755859374	0.9927880249023437	-0.07990560150146485	-0.017319499969482424	1.0311500244140626	-0.01872439956665039	0.011541399955749512	0.991572021484375	-0.03747639846801758	0.014743900299072266	0.9980230102539063	-0.056509700775146485	0.014814100265502929	1.0075999755859375	-0.07248380279541015	0.005768529891967774	1.0350899658203125	-0.10399400329589843	-0.011882499694824218	1.116780029296875
46	1.5333333333333334	-0.02064830017089844	-0.09835919952392579	1.0463199462890624	-0.03726860046386719	-0.08091580200195313	1.0631199951171875	-0.05930039978027344	-0.07292459869384765	1.0875799560546875	-0.07279830169677734	-0.040018299102783206	1.099699951171875	-0.021773399353027342	-0.07568939971923828	0.9764219970703125	-0.04112220001220703	-0.0742301025390625	0.9904110107421875	-0.06080720138549805	-0.0718740005493164	1.0073099975585937	-0.08647440338134765	-0.0652343978881836	1.0406800537109375	-0.01632789993286133	-0.0499474983215332	0.9574290161132812	-0.0349739990234375	-0.048071800231933595	0.9756649780273438	-0.05801959991455078	-0.04569179916381836	0.9970689697265624	-0.08683940124511719	-0.04052460098266602	1.031800048828125	-0.012004400253295898	-0.01916749954223633	0.9645430297851563	-0.033608898162841794	-0.016694400787353517	0.9763800048828125	-0.05887039947509766	-0.015454099655151368	0.9927009887695313	-0.07989669799804687	-0.01716379928588867	1.0310400390625	-0.018830099105834962	0.011693499565124511	0.9914019775390625	-0.03758929824829101	0.014953100204467773	0.997905029296875	-0.056584598541259766	0.015026100158691406	1.0074299926757813	-0.0724656982421875	0.005927229881286621	1.03493994140625	-0.1040989990234375	-0.01173840045928955	1.1166800537109376
